<?xml version='1.0' encoding='iso-8859-1'?>
<svg version="1.1" xmlns="http://www.w3.org/2000/svg" viewBox="0 0 295.82 295.82" xmlns:xlink="http://www.w3.org/1999/xlink" enable-background="new 0 0 295.82 295.82">
  <g>
    <g>
      <path d="M147.91,0C66.124,0,0,66.124,0,147.91s66.124,147.91,147.91,147.91s147.91-66.124,147.91-147.91S229.696,0,147.91,0z     M147.91,278.419c-71.345,0-130.509-59.164-130.509-130.509S76.565,17.401,147.91,17.401S278.419,76.565,278.419,147.91    S219.255,278.419,147.91,278.419z"/>
      <path d="m186.193,132.249l-33.062,33.062c-3.48,1.74-6.96,1.74-8.701,0l-33.062-33.062c-3.48-3.48-8.701-3.48-12.181,0-3.48,3.48-3.48,8.701 0,12.181l33.062,33.062c3.48,5.22 10.441,6.96 15.661,6.96 5.22,0 12.181-3.48 17.401-6.96l33.062-33.062c3.48-3.48 3.48-8.701 0-12.181-3.479-3.48-8.7-3.48-12.18,5.68434e-14z"/>
    </g>
  </g>
</svg>
